<?xml version="1.0" encoding="UTF-8" standalone="no"?>
<svg xmlns="http://www.w3.org/2000/svg"
   xmlns:dc="http://purl.org/dc/elements/1.1/"
   xmlns:cc="http://creativecommons.org/ns#"
   xmlns:rdf="http://www.w3.org/1999/02/22-rdf-syntax-ns#"
   xmlns:xlink="http://www.w3.org/1999/xlink"
   width="207" height="207" viewBox="0 0 207 207">
  <defs>
    <linearGradient id="linearGradient4352">
      <stop
         style="stop-color:#28225c;stop-opacity:1"
         offset="0"/>
      <stop
         style="stop-color:#a675bb;stop-opacity:1"
         offset="1"/>
    </linearGradient>
    <linearGradient id="linearGradient4344">
      <stop
         style="stop-color:#8bc23c;stop-opacity:1"
         offset="0"/>
      <stop
         style="stop-color:#ffffff;stop-opacity:1"
         offset="1"/>
    </linearGradient>
    <linearGradient
       x1="0"
       y1="103.5"
       x2="207"
       y2="103.5"
       id="linearGradient4350"
       xlink:href="#linearGradient4344"
       gradientUnits="userSpaceOnUse"/>
    <linearGradient
       x1="1"
       y1="103.5"
       x2="206"
       y2="103.5"
       id="linearGradient4366"
       xlink:href="#linearGradient4352"
       gradientUnits="userSpaceOnUse"/>
  </defs>
  <metadata>
    <rdf:RDF>
      <cc:Work rdf:about="">
        <dc:format>image/svg+xml</dc:format>
        <dc:type rdf:resource="http://purl.org/dc/dcmitype/StillImage"/>
        <dc:title>Dudeism symbol</dc:title>
      </cc:Work>
    </rdf:RDF>
  </metadata>
  <circle cx="103.5" cy="103.5" r="103.5" style="fill:#ffffff"/>
  <circle cx="103.5" cy="103.5" r="94.5" style="fill:url(#linearGradient4350)"/>
  <g style="fill:url(#linearGradient4366)">
    <path
       d="M103.5 1A102.5,102.5 0 0,1 103.5 206A102.5,102.5 0 0,1 103.5 1Z
          M103.5 10A46.75,46.75 0 0,0 103.5 103.5A46.75,46.75 0 0,1 103.5 197A93.5 93.5 0 0,0 103.5 10Z
          M103.71875 121.063A12,12 0 0,0 103.71875 145.063A12,12 0 0,0 103.71875 121.063Z
          M86 151.5A12,12 0 0,0 86 175.5A12,12 0 0,0 86 151.5Z
          M121 151.5A12,12 0 0,0 121 175.5A12,12 0 0,0 121 151.5Z"/>
    <circle cx="86" cy="43.5625" r="12"/>
    <circle cx="121" cy="43.5625" r="12"/>
    <circle cx="103.71875" cy="74" r="12"/>
  </g>
</svg>